<?xml version="1.0" encoding="utf-8"?>
<!-- Generator: Adobe Illustrator 16.0.0, SVG Export Plug-In . SVG Version: 6.00 Build 0)  -->
<!DOCTYPE svg PUBLIC "-//W3C//DTD SVG 1.1//EN" "http://www.w3.org/Graphics/SVG/1.1/DTD/svg11.dtd">
<svg version="1.1" id="Layer_1" xmlns="http://www.w3.org/2000/svg" xmlns:xlink="http://www.w3.org/1999/xlink" x="0px" y="0px"
	 width="60px" height="60px" viewBox="0 0 60 60" enable-background="new 0 0 60 60" xml:space="preserve">
<path fill="#801D1C" d="M45.4,51.6L28.6,40.4c-0.6-0.4-0.9-1-0.9-1.7v0h-2.1l3.9,11c0.4,1-0.2,2.2-1.2,2.6l-3.7,1.3l-3.8,1.3
	c-1.1,0.4-2.2-0.2-2.6-1.2l-5.3-15.3c-2.1-0.5-3.8-1.6-5.2-3.1C6,33.4,5,31.1,5,28.5c0-2.8,1.1-5.3,3-7.2h0l0,0c1.8-1.8,4.4-3,7.1-3
	h12.5c0-0.8,0.4-1.4,1-1.8L45.5,5.3c0.9-0.6,2.2-0.3,2.8,0.6c0.2,0.3,0.3,0.7,0.3,1.1v13.7c1.4,0.4,2.6,1.1,3.6,2.1l0.1,0
	c1.5,1.5,2.4,3.5,2.4,5.7c0,2.2-0.9,4.2-2.4,5.7v0v0c-1,1-2.3,1.7-3.7,2.1V50c0,1.1-0.9,2-2,2C46.2,52,45.8,51.8,45.4,51.6
	L45.4,51.6z M29.3,34.6L29.3,34.6V22.3H15.2c-1.7,0-3.2,0.7-4.3,1.8C9.7,25.3,9,26.8,9,28.5c0,1.6,0.6,3,1.5,4.1
	c1,1.1,2.4,1.8,3.9,2c0.7,0.1,1.4,0.5,1.7,1.3l5.1,14.5l1.9-0.7l1.9-0.7l-4.1-11.7c-0.1-0.2-0.2-0.5-0.2-0.8c0-1.1,0.9-2,2-2H29.3
	L29.3,34.6z M31.7,20.4L31.7,20.4v16.2v0.1v0v0v0.9l12.9,8.6V10.8l-12.9,8.6v0.9V20.4L31.7,20.4L31.7,20.4z M48.7,23.2L48.7,23.2
	v10.5c0.8-0.3,1.4-0.7,2-1.3h0c1-1,1.7-2.4,1.7-4c0-1.6-0.6-3-1.7-4l0,0C50,23.9,49.4,23.5,48.7,23.2L48.7,23.2z"/>
</svg>
